<svg width="62" height="65" viewBox="0 0 62 65" fill="none" xmlns="http://www.w3.org/2000/svg">
<path d="M55.1411 63.6946C54.7811 62.9046 54.8812 61.9946 54.8412 61.1546C54.8112 60.6546 54.7911 60.1646 54.7611 59.6746C54.7411 59.3746 54.7212 59.0646 54.7112 58.7546C54.6912 59.0246 54.6611 59.2946 54.6411 59.5546C54.5911 60.0746 54.5312 60.6046 54.4612 61.1246C54.3712 61.7446 54.1911 62.3546 54.0211 62.9646C53.8411 63.6346 53.2511 64.1546 52.5611 64.2446C51.8711 64.3346 51.1311 64.0046 50.7911 63.3846C50.6111 63.0546 50.4311 62.7446 50.2911 62.3946C50.1511 62.0546 50.1011 61.6946 50.0311 61.3446C49.8711 60.5946 49.8712 59.8046 49.8312 59.0446C49.8212 58.9546 49.8111 58.8646 49.8111 58.7746C49.5411 58.4646 49.3711 58.0546 49.3811 57.6146C49.4011 56.3546 49.4111 55.0946 49.4211 53.8246C49.2411 51.5546 49.0611 49.2946 48.8811 47.0346C48.7011 44.9346 48.5312 42.8346 48.3612 40.7446C48.2212 39.0846 48.1411 37.4346 48.0611 35.7746C47.9911 34.1646 47.9112 32.5646 47.8312 30.9546C47.7612 29.4346 47.8112 27.8946 47.8512 26.3746C47.9012 24.3546 48.0312 22.3246 48.2312 20.3146C48.3612 19.0346 48.5012 17.7546 48.7212 16.4946C48.7312 16.4446 48.7412 16.3846 48.7512 16.3346C48.4912 14.5046 48.2211 12.6746 47.9411 10.8446C46.9411 11.4346 45.9512 12.0246 44.9812 12.6446C42.8212 13.9946 40.6512 15.3446 38.4812 16.6946C37.1412 17.5346 35.8311 18.4146 34.5111 19.2846C32.6911 20.4846 30.8611 21.6946 29.0511 22.8946C27.3511 24.0646 25.6812 25.2746 24.0012 26.4546C22.7012 27.3646 21.3812 28.2546 20.1112 29.2046C18.1012 30.7046 16.0911 32.2046 14.0711 33.7046C12.7111 34.7146 11.3911 35.7546 10.0511 36.7946C9.08113 37.5546 8.10109 38.3046 7.13109 39.0646C5.71109 40.1846 4.31117 41.3246 2.84117 42.3646C2.05117 42.9246 0.961189 42.8346 0.361189 42.0446C-0.248811 41.2446 -0.0488647 40.1846 0.681135 39.5646C1.64114 38.7346 2.62119 37.9146 3.61119 37.1146C3.39119 37.1846 3.16115 37.2546 2.94115 37.3046C2.24115 37.4746 1.51115 37.2546 1.07115 36.6846C0.60115 36.0746 0.56115 35.1246 1.07115 34.5246C1.46115 34.0646 1.84112 33.6346 2.29112 33.2246C2.72112 32.8346 3.18111 32.4646 3.65111 32.1046C4.06111 31.7846 4.47109 31.4646 4.88109 31.1446C5.93109 30.3246 6.9811 29.5146 8.0211 28.6946C9.5611 27.4946 11.1311 26.3546 12.6911 25.1946C14.1911 24.0746 15.7112 22.9846 17.2412 21.8846C18.7412 20.8046 20.2611 19.7646 21.7811 18.7246C23.1911 17.7646 24.6111 16.7946 26.0511 15.8546C28.0511 14.5646 30.0411 13.2646 32.0411 11.9746C33.6711 10.9246 35.3511 9.94456 37.0111 8.92456C38.4111 8.07456 39.8012 7.22457 41.2212 6.40457C42.5912 5.61457 43.9612 4.83456 45.3312 4.04456C45.8712 3.73456 46.4011 3.42456 46.9311 3.09456C47.5211 2.73456 48.1212 2.36456 48.7512 2.06456C49.0912 1.90456 49.4512 1.72456 49.8212 1.63456C50.1612 1.55456 50.5012 1.50456 50.8412 1.46456C51.6312 1.36456 52.4012 1.79456 52.7112 2.52456C52.9112 2.98456 52.8911 3.48457 52.6911 3.91457C52.7411 3.88457 52.7812 3.86457 52.8312 3.83457C52.8812 3.74457 52.9312 3.64457 53.0012 3.55457C53.5612 2.76457 54.3511 2.14457 55.0111 1.44457C55.1311 1.30457 55.2412 1.17456 55.3512 1.03456C55.3912 0.984563 55.4212 0.924567 55.4612 0.874567C55.9012 0.204567 56.6612 -0.155438 57.4612 0.0645615C57.7812 0.154562 58.0811 0.344562 58.3111 0.604562C58.3511 0.594562 58.3811 0.584564 58.4211 0.574564C58.9211 0.454564 59.3612 0.424567 59.8512 0.624567C61.1512 1.17457 61.3011 3.07456 60.0611 3.78456C59.6311 4.03456 59.1911 4.27456 58.7611 4.52456C58.7611 4.57456 58.7711 4.63456 58.7711 4.68456C58.9811 7.58456 59.4811 10.4546 59.9211 13.3346C60.2111 15.2946 60.4412 17.2646 60.7012 19.2246C61.2512 23.5046 61.4012 27.8346 61.2212 32.1346C61.1612 33.7146 61.0711 35.3046 60.9211 36.8846C60.7911 38.2046 60.6611 39.5146 60.5311 40.8346C60.1911 44.2646 59.7812 47.6846 59.5012 51.1146C59.1612 55.1646 58.8611 59.2146 58.5511 63.2646C58.4911 64.0446 57.7811 64.6746 57.0311 64.7846C56.9511 64.7946 56.8711 64.8046 56.7911 64.8046C56.0711 64.7746 55.4311 64.3446 55.1411 63.6946ZM56.8111 23.6446C56.6911 25.1246 56.5812 26.6046 56.4912 28.0946C56.5612 29.5446 56.6211 30.9946 56.6911 32.4546C56.6911 32.4746 56.6911 32.5046 56.6911 32.5246C56.8411 34.7146 56.9812 36.9146 57.1212 39.1046C57.1312 38.9946 57.1411 38.8846 57.1611 38.7746C57.2711 37.7146 57.3712 36.6646 57.4712 35.6046C57.6012 33.6546 57.7012 31.7046 57.7412 29.7446C57.7712 27.7446 57.7012 25.7446 57.5712 23.7446C57.5012 22.6946 57.4411 21.6446 57.3011 20.6046C57.2511 20.2546 57.2111 19.9046 57.1611 19.5546C57.0411 20.9246 56.9211 22.2846 56.8111 23.6446ZM16.8312 26.4946C13.6912 28.7546 10.6211 31.1146 7.56114 33.4946C7.35114 33.6546 7.14114 33.8146 6.94114 33.9746C6.95114 34.0046 6.96117 34.0246 6.97117 34.0646C6.99117 34.1546 7.0111 34.2446 7.0211 34.3346C8.2811 33.3346 9.54113 32.3346 10.8011 31.3246C12.4011 30.0346 14.0311 28.7846 15.6411 27.5146C16.3911 26.9246 17.1411 26.3346 17.8911 25.7446C17.5411 25.9846 17.1812 26.2446 16.8312 26.4946ZM52.7911 7.93456C53.2111 8.09456 53.5812 8.36457 53.8312 8.76457C53.9112 8.90457 53.9811 9.04456 54.0411 9.18456C54.1511 9.07456 54.2811 8.96456 54.4211 8.88456C54.7811 8.67456 55.2112 8.59457 55.6212 8.66457C55.5212 7.92457 55.4312 7.18457 55.3612 6.44457C54.5012 6.94457 53.6411 7.44456 52.7911 7.93456Z" fill="white"/>
</svg>
