<svg width="51" height="50" viewBox="0 0 51 50" fill="none" xmlns="http://www.w3.org/2000/svg">
<path d="M36.507 13.5417H36.5278M14.632 4.16675H35.4653C41.2183 4.16675 45.882 8.83045 45.882 14.5834V35.4167C45.882 41.1697 41.2183 45.8334 35.4653 45.8334H14.632C8.87903 45.8334 4.21533 41.1697 4.21533 35.4167V14.5834C4.21533 8.83045 8.87903 4.16675 14.632 4.16675ZM33.382 23.6876C33.6391 25.4214 33.343 27.1922 32.5357 28.748C31.7284 30.3039 30.4511 31.5655 28.8854 32.3536C27.3197 33.1416 25.5454 33.4159 23.8149 33.1374C22.0843 32.859 20.4857 32.0419 19.2462 30.8025C18.0068 29.5631 17.1898 27.9644 16.9113 26.2339C16.6328 24.5033 16.9071 22.729 17.6952 21.1634C18.4832 19.5977 19.7449 18.3204 21.3007 17.5131C22.8565 16.7058 24.6273 16.4096 26.3612 16.6667C28.1298 16.929 29.7671 17.7531 31.0314 19.0174C32.2956 20.2816 33.1197 21.919 33.382 23.6876Z" stroke="#F3F3F3" stroke-width="4.16667" stroke-linecap="round" stroke-linejoin="round"/>
</svg>
