<svg width="51" height="50" viewBox="0 0 51 50" fill="none" xmlns="http://www.w3.org/2000/svg">
<path d="M34.0163 16.6667C37.3315 16.6667 40.5109 17.9837 42.8551 20.3279C45.1993 22.6721 46.5163 25.8515 46.5163 29.1667V43.7501H38.1829V29.1667C38.1829 28.0617 37.744 27.0019 36.9626 26.2205C36.1812 25.4391 35.1213 25.0001 34.0163 25.0001C32.9112 25.0001 31.8514 25.4391 31.07 26.2205C30.2886 27.0019 29.8496 28.0617 29.8496 29.1667V43.7501H21.5163V29.1667C21.5163 25.8515 22.8332 22.6721 25.1774 20.3279C27.5216 17.9837 30.7011 16.6667 34.0163 16.6667Z" stroke="#F3F3F3" stroke-width="4.16667" stroke-linecap="round" stroke-linejoin="round"/>
<path d="M13.1829 18.7501H4.84961V43.7501H13.1829V18.7501Z" stroke="#F3F3F3" stroke-width="4.16667" stroke-linecap="round" stroke-linejoin="round"/>
<path d="M9.01628 12.5001C11.3175 12.5001 13.1829 10.6346 13.1829 8.33341C13.1829 6.03223 11.3175 4.16675 9.01628 4.16675C6.71509 4.16675 4.84961 6.03223 4.84961 8.33341C4.84961 10.6346 6.71509 12.5001 9.01628 12.5001Z" stroke="#F3F3F3" stroke-width="4.16667" stroke-linecap="round" stroke-linejoin="round"/>
</svg>
